<?xml version="1.0"?><svg width="284.98837" height="158.88884" xmlns="http://www.w3.org/2000/svg">
 <title>White Bike Bi</title>

 <metadata id="metadata7">image/svg+xml</metadata>
 <g>
  <title>Layer 1</title>
  <g id="layer1">
   <path fill="#ffffff" stroke-width="0.45" stroke-miterlimit="4" id="path3031" d="m178.40625,0c-13.223999,-0.000061 -15.275482,0.218994 -16.4375,1.75c-1.852997,2.441956 -1.722229,3.93396 0.59375,6.25c1.766022,1.765991 3.331024,2 13.375,2c7.930023,-0.000061 11.68277,0.378967 12.34375,1.25c1.122009,1.47998 5.28125,11.658203 5.28125,12.90625c0,0.47699 -20.904724,0.84375 -46.46875,0.84375l-46.5,0l-2,-3.9375c-1.110992,-2.17804 -2.03125,-4.163269 -2.03125,-4.40625c0,-0.242065 4.773773,-0.997498 10.59375,-1.6875c11.890991,-1.408997 16.229004,-3.499268 13.375,-6.40625c-1.281006,-1.30603 -4.828735,-1.61554 -20.71875,-1.8125c-13.04599,-0.161011 -19.522247,0.115967 -20.28125,0.875c-0.613007,0.612976 -0.956238,2.86499 -0.78125,5c0.281006,3.434937 0.571014,5.393127 3.75,5l4.804413,-0.594238l6.234894,11.788269l-19.510284,29.906494c-13.931519,-4.161621 -26.558289,-5.129578 -40.841507,-0.506775c-6.880005,2.876953 -16.62175,9.815247 -21.09375,15.03125c-5.819,6.78894 -10.389999,17.107239 -11.75,26.53125c-0.149719,1.037964 -0.264282,2.08551 -0.34375,3.125l0,7.15625c1.480392,20.269775 15.51918,39.23822 35.1875,45.78125c9.127991,3.036987 9.326004,3.079956 18.875,2.75c7.153,-0.247009 10.612259,-0.9328 16.781235,-3.34375c9.002014,-3.518005 13.194489,-6.992004 22.59375,-17.25c9.536011,-10.407288 10.51413,-22.308228 10.875,-25.4375c0.789001,-0.30304 8.588776,-0.5625 17.34375,-0.5625l15.90625,0l0.15625,8c0.09201,4.399963 -0.20932,10.030945 -0.164307,10.99292c0.065002,1.36499 -0.44342,0.577576 -3.804443,0.81958c-3.789978,0.27301 -4.273987,0.574951 -4,2.5c0.25,1.756958 1.084747,2.274231 4.21875,2.53125c2.14801,0.175964 7.307831,-0.648804 8.597839,-0.971802l0.272125,-24.161316l6.723785,-8.398132c3.847015,-4.843018 7.326019,-9.262512 7.75,-9.8125c0.424011,-0.550049 2.384766,-3.025024 4.34375,-5.5c1.959015,-2.475037 11.112762,-14.062012 20.34375,-25.75c9.230011,-11.687012 17.102997,-21.25 17.5,-21.25c0.396027,-0.000061 1.224518,1.013 1.8125,2.25c3.580017,7.533936 5.499756,12.550476 5.96875,15.4375c0.46402,2.862 0.199249,3.409241 -2.09375,4.28125c-3.972992,1.510986 -14.783997,12.996948 -18,19.125c-3.998993,7.619995 -6.625,17.358948 -6.625,24.625c0,10.719971 7.21875,28.407227 14.59375,35.78125c20.061005,20.060974 49.003754,21.888733 70.84375,4.46875c7.622345,-6.767761 14.081177,-15.660095 17.1875,-25.46875c2.154999,-7.142029 2.430267,-22.063049 0.53125,-28c-7.503998,-23.462036 -27.51123,-38.847778 -50.15625,-38.59375l-16.375,0.59375l-5.1875,-13c-10.091003,-25.278015 -15.292999,-37.648499 -16.875,-40.0625c-1.580994,-2.413025 -1.791748,-2.4375 -16.71875,-2.4375zm-71.0625,35l40.625,0c34.093018,-0.000061 40.59375,0.234253 40.59375,1.40625c0,1.093994 -11.413239,16.214478 -22.40625,29.6875c-0.716003,0.876953 -3.578949,4.790405 -6.625,8.5l-16.9375,20.626953l-0.03125,-12.939453c2.604401,-0.062439 7.834076,-0.028748 7.679688,-3.328125c-0.154358,-3.299438 -7.419434,-2.395935 -12.464844,-2.189453l0.503906,18.876953l-30.9375,-60.640625zm-10.21875,6c0.598999,-0.000061 3.261505,3.937988 5.9375,8.75c2.676025,4.812988 10.203766,18.170227 16.71875,29.65625c6.515015,11.486938 11.728821,21.442688 11.28125,21.4375l-26.96875,-0.3125c-2.90213,-14.307739 -11.137207,-25.764832 -21.021851,-36.358398l14.053101,-23.172852zm136.6875,24.21875c9.561005,0.401978 12.128998,0.888733 17.125,3.21875c7.403015,3.450989 17.016022,13.081482 20.5,20.5625c2.290009,4.915955 4.114014,6.845703 4.25,18.21875c1.384491,11.512695 -5.836731,21.39563 -13.34375,29.625c-10.635986,10.307983 -26.184998,14.493713 -39.875,10.71875c-20.582001,-5.676025 -34.235748,-25.719299 -31.09375,-45.65625c1.756012,-11.14502 4.755524,-17.430054 11.6875,-24.5c8.065002,-8.225037 9.521027,-8.282288 12.5,-0.40625c0.727997,1.924988 2.276764,5.75 3.46875,8.5c1.192017,2.749939 3.942749,9.3797 6.09375,14.71875c4.417999,10.967957 6.948517,13.470459 10.4375,10.3125c2.868317,-4.000366 0.339844,-9.876648 -2.810425,-16.692444c-1.692017,-3.108032 -10.189575,-26.039307 -10.189575,-27.526306c2.373566,-2.368408 7.906769,-1.227234 11.25,-1.09375zm-164.520142,4.349792c-7.808319,13.800537 -25.812042,37.383118 -23.637909,40.356873c2.274155,3.110535 6.52356,2.074585 26.720551,2.074585l21.46875,0c-2.198975,29.80188 -32.187347,35.00824 -43.865631,34.609009c-19.188507,-0.642639 -39.390076,-15.317261 -39.196854,-42.234009c0.193222,-26.640564 28.761185,-45.075073 58.511093,-34.806458zm8.926392,4.462708c6.996429,6.378174 13.81604,12.651611 15.0578,26.6745l-32.112488,0.458313l17.054688,-27.132813z"/>
  </g>
 </g>
</svg>